<svg xmlns="http://www.w3.org/2000/svg" width="138" height="23" viewBox="0 0 138 23">
    <path fill="#FFF" fill-rule="evenodd" d="M10.08 10.604c2.912 1.148 6.104 2.632 6.104 5.824 0 4.06-3.78 5.684-7.56 5.712-2.772.028-5.824-1.204-7.784-3.332l2.072-2.072c1.204 1.512 3.472 2.828 5.712 2.828 2.436-.028 4.452-.868 4.452-2.94 0-1.82-1.932-2.576-5.236-3.976-2.716-1.148-5.964-2.52-5.964-6.076 0-2.8 2.66-5.712 7.028-5.712 3.08 0 5.544 1.232 7.504 3.388l-2.072 1.988c-1.344-1.456-3.36-2.8-5.796-2.8-1.904 0-3.556 1.064-3.556 2.856 0 2.52 2.912 3.444 5.096 4.312zM34.264 22l-1.876-4.788H23.54L21.664 22h-3.276l8.624-21h1.904l8.624 21h-3.276zm-9.716-7.364h6.832l-3.416-8.652-3.416 8.652zM55.48 8.728c0 4.256-3.304 7.7-7.392 7.728h-5.04V22H39.94V1h8.148c4.088 0 7.392 3.472 7.392 7.728zm-7.448 5.152c2.408 0 4.34-2.324 4.34-5.152 0-2.828-1.932-5.152-4.34-5.152h-4.984V13.88h4.984zM73.98 8.728c0 4.256-3.304 7.7-7.392 7.728h-5.04V22H58.44V1h8.148c4.088 0 7.392 3.472 7.392 7.728zm-7.448 5.152c2.408 0 4.34-2.324 4.34-5.152 0-2.828-1.932-5.152-4.34-5.152h-4.984V13.88h4.984zM93.32 1v21h-3.108v-9.212h-9.884V22H77.22V1h3.108v9.212h9.884V1h3.108zm6.908 21H97.12V1h3.108v21zm19.368-13.552c0 3.192-1.848 5.768-4.508 6.888L119.596 22h-3.556l-4.116-6.104h-4.788V22h-3.108V1h8.148c4.116.028 7.42 3.22 7.42 7.448zm-12.46 4.872h5.012c2.38 0 4.34-2.016 4.34-4.872 0-2.828-1.96-4.872-4.34-4.872h-5.012v9.744zm30.204 6.104V22h-14.504V1h13.972v2.576h-10.864v6.216h8.876v2.604h-8.876v7.028h11.396z"/>
</svg>
